<svg width="60" height="60" viewBox="0 0 60 60" fill="none" xmlns="http://www.w3.org/2000/svg">
<circle cx="30" cy="30" r="29" fill="white" stroke="#F4F4F4" stroke-width="2"/>
<path fill-rule="evenodd" clip-rule="evenodd" d="M32 20C32 20.0745 31.9959 20.148 31.988 20.2203C36.002 21.1253 39 24.7126 39 29V33.2636C40.2394 34.5679 41 36.3315 41 38.2727C41 38.6744 40.6744 39 40.2727 39H39H33C33 40.6569 31.6569 42 30 42C28.3431 42 27 40.6569 27 39H21H19.7273C19.3256 39 19 38.6744 19 38.2727C19 36.3315 19.7606 34.5679 21 33.2636V29C21 24.7126 23.998 21.1253 28.012 20.2203C28.0041 20.148 28 20.0745 28 20C28 18.8954 28.8954 18 30 18C31.1046 18 32 18.8954 32 20Z" fill="#121212"/>
<path d="M31.988 20.2203L31.491 20.1658L31.4423 20.6098L31.878 20.7081L31.988 20.2203ZM39 33.2636H38.5V33.4633L38.6376 33.6081L39 33.2636ZM33 39V38.5H32.5V39H33ZM27 39H27.5V38.5H27V39ZM21 33.2636L21.3624 33.6081L21.5 33.4633V33.2636H21ZM28.012 20.2203L28.122 20.7081L28.5577 20.6098L28.509 20.1658L28.012 20.2203ZM32.485 20.2748C32.4949 20.1844 32.5 20.0927 32.5 20H31.5C31.5 20.0562 31.4969 20.1116 31.491 20.1658L32.485 20.2748ZM39.5 29C39.5 24.4737 36.3351 20.6879 32.098 19.7325L31.878 20.7081C35.6689 21.5628 38.5 24.9514 38.5 29H39.5ZM39.5 33.2636V29H38.5V33.2636H39.5ZM41.5 38.2727C41.5 36.1982 40.6866 34.3126 39.3624 32.9192L38.6376 33.6081C39.7922 34.8231 40.5 36.4647 40.5 38.2727H41.5ZM40.2727 39.5C40.9505 39.5 41.5 38.9505 41.5 38.2727H40.5C40.5 38.3982 40.3982 38.5 40.2727 38.5V39.5ZM39 39.5H40.2727V38.5H39V39.5ZM33 39.5H39V38.5H33V39.5ZM32.5 39C32.5 40.3807 31.3807 41.5 30 41.5V42.5C31.933 42.5 33.5 40.933 33.5 39H32.5ZM30 41.5C28.6193 41.5 27.5 40.3807 27.5 39H26.5C26.5 40.933 28.067 42.5 30 42.5V41.5ZM21 39.5H27V38.5H21V39.5ZM19.7273 39.5H21V38.5H19.7273V39.5ZM18.5 38.2727C18.5 38.9505 19.0495 39.5 19.7273 39.5V38.5C19.6018 38.5 19.5 38.3982 19.5 38.2727H18.5ZM20.6376 32.9192C19.3134 34.3126 18.5 36.1982 18.5 38.2727H19.5C19.5 36.4647 20.2078 34.8231 21.3624 33.6081L20.6376 32.9192ZM20.5 29V33.2636H21.5V29H20.5ZM27.902 19.7325C23.6649 20.6879 20.5 24.4737 20.5 29H21.5C21.5 24.9514 24.331 21.5628 28.122 20.7081L27.902 19.7325ZM27.5 20C27.5 20.0927 27.5051 20.1844 27.515 20.2748L28.509 20.1658C28.5031 20.1116 28.5 20.0562 28.5 20H27.5ZM30 17.5C28.6193 17.5 27.5 18.6193 27.5 20H28.5C28.5 19.1716 29.1716 18.5 30 18.5V17.5ZM32.5 20C32.5 18.6193 31.3807 17.5 30 17.5V18.5C30.8284 18.5 31.5 19.1716 31.5 20H32.5Z" fill="#121212"/>
<circle cx="38" cy="23" r="3" fill="#F5A200"/>
</svg>
