<svg width="7" height="14" viewBox="0 0 7 14" fill="none" xmlns="http://www.w3.org/2000/svg">
<path d="M5.65495 13.5634C5.51023 13.5639 5.36724 13.532 5.23648 13.47C5.10572 13.4079 4.99052 13.3174 4.89934 13.205L0.220375 7.39263C0.077892 7.21929 0 7.00187 0 6.77748C0 6.5531 0.077892 6.33568 0.220375 6.16234L5.06403 0.349956C5.22846 0.152125 5.46474 0.0277166 5.7209 0.00409918C5.97706 -0.0195182 6.23211 0.0595902 6.42994 0.224021C6.62777 0.388452 6.75218 0.624737 6.77579 0.880894C6.79941 1.13705 6.7203 1.3921 6.55587 1.58993L2.22565 6.78233L6.41056 11.9747C6.52902 12.1169 6.60427 12.2901 6.6274 12.4737C6.65054 12.6573 6.62059 12.8437 6.5411 13.0109C6.46161 13.178 6.3359 13.3189 6.17886 13.4168C6.02182 13.5147 5.84001 13.5656 5.65495 13.5634Z" fill="black"/>
</svg>
