<svg width="40" height="40" viewBox="0 0 40 40" fill="none" xmlns="http://www.w3.org/2000/svg">
<path d="M35.4371 9.45678L24.1308 1.54626C21.049 -0.612936 16.3184 -0.495162 13.3545 1.80144L3.52032 9.47641C1.55741 11.0075 0.00671387 14.1481 0.00671387 16.6213V30.1654C0.00671387 35.1708 4.06993 39.2536 9.07535 39.2536H30.2354C35.2408 39.2536 39.3041 35.1904 39.3041 30.185V16.8765C39.3041 14.2266 37.5963 10.9682 35.4371 9.45678ZM21.1275 31.402C21.1275 32.2068 20.4601 32.8742 19.6554 32.8742C18.8506 32.8742 18.1832 32.2068 18.1832 31.402V25.5133C18.1832 24.7085 18.8506 24.0411 19.6554 24.0411C20.4601 24.0411 21.1275 24.7085 21.1275 25.5133V31.402Z" fill="#292D32"/>
</svg>
