<svg width="60" height="60" viewBox="0 0 60 60" fill="none" xmlns="http://www.w3.org/2000/svg">
<circle cx="30" cy="30" r="29" fill="white" stroke="#F4F4F4" stroke-width="2"/>
<path fill-rule="evenodd" clip-rule="evenodd" d="M36 28C36 32.4183 32.4183 36 28 36C23.5817 36 20 32.4183 20 28C20 23.5817 23.5817 20 28 20C32.4183 20 36 23.5817 36 28ZM34.3287 35.7429C32.6049 37.1536 30.4013 38 28 38C22.4772 38 18 33.5228 18 28C18 22.4772 22.4772 18 28 18C33.5228 18 38 22.4772 38 28C38 30.4013 37.1536 32.6049 35.7429 34.3287L41.7071 40.2929C42.0976 40.6834 42.0976 41.3166 41.7071 41.7071C41.3166 42.0976 40.6834 42.0976 40.2929 41.7071L34.3287 35.7429Z" fill="#121212"/>
</svg>
