<svg width="15" height="16" viewBox="0 0 15 16" fill="none" xmlns="http://www.w3.org/2000/svg">
<path d="M7.12586 13.3445C7.04771 13.3449 6.97023 13.3299 6.89788 13.3004C6.82553 13.2708 6.75973 13.2273 6.70424 13.1723L2.09023 8.55232C1.51147 7.96751 1.18683 7.17795 1.18683 6.35517C1.18683 5.53239 1.51147 4.74284 2.09023 4.15803C2.67352 3.57638 3.46365 3.24976 4.28738 3.24976C5.11111 3.24976 5.90124 3.57638 6.48453 4.15803L7.12586 4.79936L7.76719 4.15803C8.35048 3.57638 9.1406 3.24976 9.96433 3.24976C10.7881 3.24976 11.5782 3.57638 12.1615 4.15803C12.7402 4.74284 13.0649 5.53239 13.0649 6.35517C13.0649 7.17795 12.7402 7.96751 12.1615 8.55232L7.54747 13.1723C7.49198 13.2273 7.42618 13.2708 7.35383 13.3004C7.28148 13.3299 7.20401 13.3449 7.12586 13.3445Z" fill="#A0A0A0"/>
</svg>
