<svg width="71" height="70" viewBox="0 0 71 70" fill="none" xmlns="http://www.w3.org/2000/svg">
<circle cx="35.5" cy="35" r="35" fill="#DAE000"/>
<path fill-rule="evenodd" clip-rule="evenodd" d="M26.7727 29.0833C26.7727 28.485 27.2204 28 27.7727 28H30.1364C30.6886 28 31.1364 28.485 31.1364 29.0833V31.5455L39.8636 31.5455V29.0833C39.8636 28.485 40.3114 28 40.8636 28H43.2273C43.7796 28 44.2273 28.485 44.2273 29.0833V30.3636H46.5C47.0523 30.3636 47.5 30.8487 47.5 31.447V37.553C47.5 38.1513 47.0523 38.6364 46.5 38.6364H44.2273V39.9167C44.2273 40.515 43.7796 41 43.2273 41H40.8636C40.3114 41 39.8636 40.515 39.8636 39.9167V36.2727H31.1364V39.9167C31.1364 40.515 30.6886 41 30.1364 41H27.7727C27.2204 41 26.7727 40.515 26.7727 39.9167V38.6364H24.5C23.9477 38.6364 23.5 38.1513 23.5 37.553V31.447C23.5 30.8487 23.9477 30.3636 24.5 30.3636H26.7727V29.0833Z" fill="#121212"/>
</svg>
