<svg width="71" height="70" viewBox="0 0 71 70" fill="none" xmlns="http://www.w3.org/2000/svg">
<circle cx="35.5" cy="35" r="35" fill="#DAE000"/>
<path d="M27.2559 34.8089C27.2559 35.9269 26.3495 36.8333 25.2314 36.8333C24.1134 36.8333 23.207 35.9269 23.207 34.8089C23.207 33.6908 24.1134 32.7845 25.2314 32.7845C26.3495 32.7845 27.2559 33.6908 27.2559 34.8089Z" fill="#121212"/>
<path d="M37.3782 34.8089C37.3782 35.9269 36.4718 36.8333 35.3538 36.8333C34.2357 36.8333 33.3293 35.9269 33.3293 34.8089C33.3293 33.6908 34.2357 32.7845 35.3538 32.7845C36.4718 32.7845 37.3782 33.6908 37.3782 34.8089Z" fill="#121212"/>
<path d="M47.4998 34.8089C47.4998 35.9269 46.5934 36.8333 45.4753 36.8333C44.3573 36.8333 43.4509 35.9269 43.4509 34.8089C43.4509 33.6908 44.3573 32.7845 45.4753 32.7845C46.5934 32.7845 47.4998 33.6908 47.4998 34.8089Z" fill="#121212"/>
</svg>
