<svg width="70" height="70" viewBox="0 0 70 70" fill="none" xmlns="http://www.w3.org/2000/svg">
<circle cx="35" cy="35" r="35" fill="#DAE000"/>
<path fill-rule="evenodd" clip-rule="evenodd" d="M45.9545 23C46.5319 23 47 23.4477 47 24V40C47 40.5523 46.5319 41 45.9545 41H28.7045C27.2611 41 26.0909 42.1193 26.0909 43.5C26.0909 44.8807 27.2611 46 28.7045 46H46.4773C46.766 46 47 46.2239 47 46.5C47 46.7761 46.766 47 46.4773 47H25.0455C24.4681 47 24 46.5523 24 46V24C24 23.4477 24.4681 23 25.0455 23H45.9545ZM29.2273 26C28.6499 26 28.1818 26.4477 28.1818 27V30C28.1818 30.5523 28.6499 31 29.2273 31H43.8636C44.441 31 44.9091 30.5523 44.9091 30V27C44.9091 26.4477 44.441 26 43.8636 26H29.2273ZM28.1818 33.5C28.1818 33.2239 28.4159 33 28.7045 33H44.3864C44.6751 33 44.9091 33.2239 44.9091 33.5C44.9091 33.7761 44.6751 34 44.3864 34H28.7045C28.4159 34 28.1818 33.7761 28.1818 33.5ZM28.7045 36C28.4159 36 28.1818 36.2239 28.1818 36.5C28.1818 36.7761 28.4159 37 28.7045 37H36.0227C36.3114 37 36.5455 36.7761 36.5455 36.5C36.5455 36.2239 36.3114 36 36.0227 36H28.7045Z" fill="#121212"/>
</svg>
