<svg width="70" height="70" viewBox="0 0 70 70" fill="none" xmlns="http://www.w3.org/2000/svg">
<circle cx="35" cy="35" r="35" fill="#036B3F"/>
<path fill-rule="evenodd" clip-rule="evenodd" d="M41.7771 23.9562C42.2901 23.4431 43.1066 23.4278 43.6007 23.9219L46.2847 26.6059C46.7789 27.1 46.7635 27.9165 46.2504 28.4296V28.4296C45.7373 28.9427 44.9209 28.958 44.4267 28.4639L41.7427 25.7799C41.2486 25.2858 41.264 24.4693 41.7771 23.9562V23.9562ZM38.0611 27.6722C38.5741 27.1591 39.3906 27.1438 39.8847 27.6379L42.5687 30.3219C43.0629 30.816 43.0475 31.6325 42.5344 32.1456L28.8659 45.8141C28.6918 45.9882 28.474 46.1117 28.2375 46.1705L24.6659 47.0581C23.7333 47.2898 22.9168 46.4733 23.1485 45.5407L24.0361 41.9691C24.0949 41.7326 24.2184 41.5149 24.3925 41.3408L38.0611 27.6722Z" fill="white"/>
</svg>
