<svg width="46" height="46" viewBox="0 0 46 46" fill="none" xmlns="http://www.w3.org/2000/svg">
<path d="M39.283 36.6284L32.9268 30.2909C34.9776 27.6782 36.0904 24.4519 36.0862 21.1305C36.0862 18.1726 35.2091 15.281 33.5657 12.8216C31.9224 10.3621 29.5866 8.44521 26.8538 7.31325C24.121 6.18128 21.1139 5.88511 18.2128 6.46218C15.3117 7.03925 12.6468 8.46364 10.5552 10.5552C8.46364 12.6468 7.03925 15.3117 6.46218 18.2128C5.88511 21.1139 6.18128 24.121 7.31325 26.8538C8.44521 29.5866 10.3621 31.9224 12.8216 33.5657C15.281 35.2091 18.1726 36.0862 21.1305 36.0862C24.4519 36.0904 27.6782 34.9776 30.2909 32.9268L36.6284 39.283C36.8022 39.4582 37.0089 39.5973 37.2368 39.6922C37.4646 39.7871 37.7089 39.836 37.9557 39.836C38.2025 39.836 38.4468 39.7871 38.6747 39.6922C38.9025 39.5973 39.1092 39.4582 39.283 39.283C39.4582 39.1092 39.5973 38.9025 39.6922 38.6747C39.7871 38.4468 39.836 38.2025 39.836 37.9557C39.836 37.7089 39.7871 37.4646 39.6922 37.2368C39.5973 37.0089 39.4582 36.8022 39.283 36.6284ZM9.91374 21.1305C9.91374 18.9121 10.5716 16.7434 11.8041 14.8988C13.0366 13.0542 14.7884 11.6165 16.838 10.7676C18.8876 9.9186 21.143 9.69647 23.3188 10.1293C25.4947 10.5621 27.4933 11.6304 29.062 13.1991C30.6307 14.7678 31.699 16.7664 32.1318 18.9422C32.5646 21.1181 32.3425 23.3734 31.4935 25.423C30.6445 27.4726 29.2068 29.2244 27.3622 30.4569C25.5176 31.6895 23.349 32.3473 21.1305 32.3473C18.1557 32.3473 15.3026 31.1655 13.1991 29.062C11.0955 26.9584 9.91374 24.1054 9.91374 21.1305Z" fill="#231F20"/>
</svg>
