<svg width="71" height="70" viewBox="0 0 71 70" fill="none" xmlns="http://www.w3.org/2000/svg">
<circle cx="35.5" cy="35" r="35" fill="#DAE000"/>
<path fill-rule="evenodd" clip-rule="evenodd" d="M30.8245 37.6408C30.6509 37.6579 30.4752 37.6667 30.2975 37.6667C27.0956 37.6667 24.5 34.8311 24.5 31.3333C24.5 27.8355 27.0956 25 30.2975 25C30.4752 25 30.6509 25.0087 30.8245 25.0258V25H39.2572C42.7502 25 45.5818 27.8355 45.5818 31.3333L47.4854 42.7709C47.5925 43.4143 47.097 44 46.4457 44H38.042C37.5267 44 37.087 43.627 37.0023 43.118L36.095 37.6667H30.8245V37.6408ZM30.8245 34.4367C30.6542 34.4782 30.478 34.5 30.2975 34.5C28.8421 34.5 27.6623 33.0822 27.6623 31.3333C27.6623 29.5844 28.8421 28.1667 30.2975 28.1667C30.478 28.1667 30.6542 28.1885 30.8245 28.23C30.8259 28.2303 30.8272 28.2307 30.8286 28.231C32.0294 28.5263 32.9327 29.803 32.9327 31.3333C32.9327 32.8653 32.0274 34.1432 30.8245 34.4367Z" fill="#121212"/>
</svg>
