<svg width="70" height="70" viewBox="0 0 70 70" fill="none" xmlns="http://www.w3.org/2000/svg">
<circle cx="35" cy="35" r="35" fill="#036B3F"/>
<path fill-rule="evenodd" clip-rule="evenodd" d="M25 24C25 23.4477 25.4477 23 26 23H45C45.5523 23 46 23.4477 46 24V46C46 46.5523 45.5523 47 45 47H26C25.4477 47 25 46.5523 25 46V43H23C22.4477 43 22 42.5523 22 42C22 41.4477 22.4477 41 23 41H25V38H23C22.4477 38 22 37.5523 22 37C22 36.4477 22.4477 36 23 36H25V33H23C22.4477 33 22 32.5523 22 32C22 31.4477 22.4477 31 23 31H25V28H23C22.4477 28 22 27.5523 22 27C22 26.4477 22.4477 26 23 26H25V24ZM27 27C27 26.4477 27.4477 26 28 26H33C33.5523 26 34 26.4477 34 27V32C34 32.5523 33.5523 33 33 33H28C27.4477 33 27 32.5523 27 32V27ZM36.5 26C36.2239 26 36 26.2239 36 26.5C36 26.7761 36.2239 27 36.5 27H43.5C43.7761 27 44 26.7761 44 26.5C44 26.2239 43.7761 26 43.5 26H36.5ZM27 35.5C27 35.2239 27.2239 35 27.5 35H43.5C43.7761 35 44 35.2239 44 35.5C44 35.7761 43.7761 36 43.5 36H27.5C27.2239 36 27 35.7761 27 35.5ZM27.5 38C27.2239 38 27 38.2239 27 38.5C27 38.7761 27.2239 39 27.5 39H43.5C43.7761 39 44 38.7761 44 38.5C44 38.2239 43.7761 38 43.5 38H27.5ZM27 41.5C27 41.2239 27.2239 41 27.5 41H43.5C43.7761 41 44 41.2239 44 41.5C44 41.7761 43.7761 42 43.5 42H27.5C27.2239 42 27 41.7761 27 41.5ZM36.5 32C36.2239 32 36 32.2239 36 32.5C36 32.7761 36.2239 33 36.5 33H43.5C43.7761 33 44 32.7761 44 32.5C44 32.2239 43.7761 32 43.5 32H36.5ZM36 29.5C36 29.2239 36.2239 29 36.5 29H43.5C43.7761 29 44 29.2239 44 29.5C44 29.7761 43.7761 30 43.5 30H36.5C36.2239 30 36 29.7761 36 29.5Z" fill="white"/>
</svg>
