<svg width="70" height="70" viewBox="0 0 70 70" fill="none" xmlns="http://www.w3.org/2000/svg">
<circle cx="35" cy="35" r="35" fill="#DAE000"/>
<path fill-rule="evenodd" clip-rule="evenodd" d="M41.7773 23.9562C42.2904 23.4431 43.1069 23.4278 43.601 23.9219L46.285 26.6059C46.7791 27.1 46.7637 27.9165 46.2507 28.4296C45.7376 28.9427 44.9211 28.958 44.427 28.4639L41.743 25.7799C41.2489 25.2858 41.2642 24.4693 41.7773 23.9562ZM38.0613 27.6722C38.5744 27.1591 39.3909 27.1438 39.885 27.6379L42.569 30.3219C43.0631 30.816 43.0477 31.6325 42.5347 32.1456L28.8661 45.8141C28.692 45.9882 28.4743 46.1117 28.2378 46.1705L24.6662 47.0581C23.7336 47.2898 22.917 46.4733 23.1488 45.5407L24.0364 41.9691C24.0952 41.7326 24.2186 41.5149 24.3928 41.3408L38.0613 27.6722Z" fill="#121212"/>
</svg>
