<svg width="71" height="70" viewBox="0 0 71 70" fill="none" xmlns="http://www.w3.org/2000/svg">
<circle cx="35.5" cy="35" r="35" fill="#DAE000"/>
<path fill-rule="evenodd" clip-rule="evenodd" d="M36.1368 31C36.3526 31 36.5595 30.9206 36.7451 30.8069C36.7741 30.7892 36.8033 30.772 36.8325 30.7555C37.4329 30.4159 37.8401 29.7571 37.8401 29C37.8401 27.8954 36.9734 27 35.9043 27C35.1715 27 34.5338 27.4207 34.2051 28.041C33.9484 28.5255 33.5352 29 33.0006 29C32.466 29 32.0203 28.5453 32.1522 28.0101C32.5785 26.2798 34.0968 25 35.9043 25C38.0425 25 39.7759 26.7909 39.7759 29C39.7759 30.5612 38.9101 31.9136 37.6476 32.5725C37.2617 32.7739 36.9683 33.1551 36.9683 33.6017V34.7146L47.0928 42.1863C47.8591 42.7517 47.4719 44 46.5303 44H25.4697C24.5281 44 24.1409 42.7517 24.9072 42.1863L35.0325 34.714V32C35.0325 31.4477 35.4658 31 36.0004 31H36.1368ZM28.49 42L36 36.4578L43.51 42H28.49Z" fill="#121212"/>
</svg>
