<svg width="26" height="31" viewBox="0 0 26 31" fill="none" xmlns="http://www.w3.org/2000/svg">
<path d="M8.27223 29.9465C8.27223 30.4906 8.00019 30.7626 7.45608 30.7626H1.08234C0.564149 30.7626 0.305054 30.4906 0.305054 29.9465V0.992572C0.305054 0.500291 0.564149 0.25415 1.08234 0.25415H7.45608C8.00019 0.25415 8.27223 0.500291 8.27223 0.992572V11.2139L14.6071 0.87598C14.7367 0.668704 14.8662 0.513246 14.9958 0.409608C15.1253 0.30597 15.2937 0.25415 15.501 0.25415H23.3127C23.5977 0.25415 23.792 0.344834 23.8957 0.526202C24.0252 0.681658 23.9993 0.901889 23.818 1.18689L8.27223 24.1946V29.9465ZM16.8224 30.7626C16.3301 30.7626 16.0321 30.5554 15.9285 30.1408L11.7312 22.1736C11.6534 22.0182 11.6016 21.8497 11.5757 21.6684C11.5757 21.4611 11.6405 21.2668 11.77 21.0854L15.6176 15.4112C15.9803 14.8412 16.3301 14.8412 16.6669 15.4112L25.1393 29.8687C25.3984 30.4647 25.2041 30.7626 24.5564 30.7626H16.8224Z" fill="#DAE000"/>
</svg>
