<svg width="103" height="101" viewBox="0 0 103 101" fill="none" xmlns="http://www.w3.org/2000/svg">
<path fill-rule="evenodd" clip-rule="evenodd" d="M28.614 28.4966H20.8182C16.3261 28.4966 12.4544 31.6521 11.5562 36.0453L0.691931 89.1813C-0.5039 95.03 3.97357 100.503 9.95393 100.503H93.0461C99.0264 100.503 103.504 95.03 102.308 89.1813L91.4438 36.0453C90.5456 31.6521 86.6739 28.4966 82.1818 28.4966H73.8885V37.1871C73.8885 49.6661 63.7534 59.7823 51.2512 59.7823C38.7491 59.7823 28.614 49.6661 28.614 37.1871V28.4966ZM20.8182 28C16.0897 28 12.0142 31.3216 11.0687 35.946L0.204458 89.082C-1.05431 95.2386 3.65882 101 9.95393 101H93.0461C99.3412 101 104.054 95.2385 102.796 89.082L91.9313 35.946C90.9858 31.3215 86.9104 28 82.1818 28H73.3909V37.1871C73.3909 49.3918 63.4787 59.2857 51.2512 59.2857C39.0238 59.2857 29.1115 49.3918 29.1115 37.1871V28H20.8182ZM44.5347 28.4966V37.1871C44.5347 40.8896 47.5418 43.8912 51.2512 43.8912C54.9607 43.8912 57.9678 40.8896 57.9678 37.1871V28.4966H44.5347ZM44.0372 28V37.1871C44.0372 41.1639 47.267 44.3878 51.2512 44.3878C55.2355 44.3878 58.4653 41.1639 58.4653 37.1871V28H44.0372Z" fill="#DAE000"/>
<path fill-rule="evenodd" clip-rule="evenodd" d="M29.1115 28H20.8182C16.0897 28 12.0142 31.3216 11.0687 35.946L0.204458 89.082C-1.05431 95.2386 3.65882 101 9.95393 101H93.0461C99.3412 101 104.054 95.2385 102.796 89.082L91.9313 35.946C90.9858 31.3215 86.9104 28 82.1818 28H73.3909V37.1871C73.3909 49.3918 63.4787 59.2857 51.2512 59.2857C39.0238 59.2857 29.1115 49.3918 29.1115 37.1871V28ZM44.0372 28H51.5H58.4653V37.1871C58.4653 41.1639 55.2355 44.3878 51.2512 44.3878C47.267 44.3878 44.0372 41.1639 44.0372 37.1871V28Z" fill="#DAE000"/>
<path fill-rule="evenodd" clip-rule="evenodd" d="M32 19.3304C32 8.65453 40.7304 0 51.5 0C62.2696 0 71 8.65453 71 19.3304V37.6696C71 48.3455 62.2696 57 51.5 57C40.7304 57 32 48.3455 32 37.6696V19.3304ZM51.5 9.41739C45.9772 9.41739 41.5 13.8556 41.5 19.3304V37.6696C41.5 43.1444 45.9772 47.5826 51.5 47.5826C57.0228 47.5826 61.5 43.1444 61.5 37.6696V19.3304C61.5 13.8556 57.0228 9.41739 51.5 9.41739Z" fill="#DAE000"/>
<path d="M82 77.4025C82 80.0233 81.6361 82.2125 80.9083 83.97C80.2122 85.6967 79.2155 87.0842 77.9182 88.1325C76.6525 89.1808 75.1178 89.9208 73.3142 90.3525C71.5423 90.7842 69.5963 91 67.4763 91C65.3562 91 63.4103 90.7842 61.6383 90.3525C59.8663 89.9208 58.3317 89.1808 57.0344 88.1325C55.7687 87.0842 54.772 85.6967 54.0442 83.97C53.3481 82.2125 53 80.0233 53 77.4025V54.925C53 54.3083 53.3164 54 53.9493 54H61.6383C62.3028 54 62.635 54.3083 62.635 54.925V77.7262C62.635 79.6379 62.9989 81.0408 63.7267 81.935C64.4861 82.7983 65.736 83.23 67.4763 83.23C69.2166 83.23 70.4664 82.7983 71.2259 81.935C71.9853 81.0408 72.365 79.6379 72.365 77.7262V54.925C72.365 54.3083 72.6814 54 73.3142 54H81.0033C81.6678 54 82 54.3083 82 54.925V77.4025Z" fill="#121212"/>
<path d="M30.5816 90.0102C30.5816 90.6701 30.2544 91 29.6 91H21.9348C21.3116 91 21 90.6701 21 90.0102V54.8955C21 54.2985 21.3116 54 21.9348 54H29.6C30.2544 54 30.5816 54.2985 30.5816 54.8955V67.2917L38.2001 54.7541C38.3559 54.5028 38.5117 54.3142 38.6675 54.1885C38.8233 54.0628 39.0258 54 39.2751 54H48.6697C49.0125 54 49.2462 54.11 49.3708 54.3299C49.5266 54.5185 49.4954 54.7856 49.2773 55.1312L30.5816 83.0344V90.0102ZM40.8642 91C40.2722 91 39.9139 90.7486 39.7892 90.2459L34.7414 80.5834C34.6479 80.3949 34.5856 80.1907 34.5544 79.9707C34.5544 79.7193 34.6323 79.4837 34.7881 79.2637L39.4153 72.3822C39.8515 71.6909 40.2722 71.6909 40.6773 72.3822L50.8665 89.9159C51.1781 90.6386 50.9444 91 50.1654 91H40.8642Z" fill="#121212"/>
</svg>
