<svg width="208" height="204" viewBox="0 0 208 204" fill="none" xmlns="http://www.w3.org/2000/svg">
<path fill-rule="evenodd" clip-rule="evenodd" d="M58.5132 57H41.8438C32.3396 57 24.1481 63.6886 22.2477 73.0008L0.410953 180.001C-2.11913 192.398 7.35409 204 20.007 204H187.019C199.672 204 209.145 192.398 206.615 180.001L184.779 73.0008C182.878 63.6886 174.687 57 165.183 57H147.513V75.5C147.513 100.077 127.59 120 103.013 120C78.4365 120 58.5132 100.077 58.5132 75.5V57ZM88.5132 57H103.513H117.513V75.5C117.513 83.5081 111.021 90 103.013 90C95.005 90 88.5132 83.5081 88.5132 75.5V57Z" fill="white"/>
<path fill-rule="evenodd" clip-rule="evenodd" d="M57.5132 58H41.8438C32.8148 58 25.0329 64.3542 23.2275 73.2008L1.39076 180.201C-1.01282 191.978 7.98674 203 20.007 203H187.019C199.04 203 208.039 191.978 205.636 180.201L183.799 73.2008C181.993 64.3542 174.212 58 165.183 58H148.513V75.5C148.513 100.629 128.142 121 103.013 121C77.8842 121 57.5132 100.629 57.5132 75.5V58ZM41.8438 57C32.3396 57 24.1481 63.6886 22.2477 73.0008L0.410953 180.001C-2.11913 192.398 7.35409 204 20.007 204H187.019C199.672 204 209.145 192.398 206.615 180.001L184.779 73.0008C182.878 63.6886 174.687 57 165.183 57H147.513V75.5C147.513 100.077 127.59 120 103.013 120C78.4365 120 58.5132 100.077 58.5132 75.5V57H41.8438ZM89.5132 58V75.5C89.5132 82.9558 95.5573 89 103.013 89C110.469 89 116.513 82.9558 116.513 75.5V58H89.5132ZM88.5132 57V75.5C88.5132 83.5081 95.005 90 103.013 90C111.021 90 117.513 83.5081 117.513 75.5V57H88.5132Z" fill="white"/>
<path fill-rule="evenodd" clip-rule="evenodd" d="M64.5 39.1609C64.5 17.8091 81.8091 0.5 103.161 0.5C124.513 0.5 141.822 17.8091 141.822 39.1609V75.8391C141.822 97.1909 124.513 114.5 103.161 114.5C81.8091 114.5 64.5 97.1909 64.5 75.8391V39.1609ZM103.161 19.3348C92.2112 19.3348 83.3348 28.2112 83.3348 39.1609V75.8391C83.3348 86.7888 92.2112 95.6652 103.161 95.6652C114.111 95.6652 122.987 86.7888 122.987 75.8391V39.1609C122.987 28.2112 114.111 19.3348 103.161 19.3348Z" fill="white"/>
<path d="M164.894 156.07C164.894 161.453 164.165 165.95 162.709 169.56C161.315 173.107 159.32 175.957 156.724 178.11C154.19 180.263 151.119 181.783 147.509 182.67C143.962 183.557 140.067 184 135.824 184C131.58 184 127.685 183.557 124.139 182.67C120.592 181.783 117.52 180.263 114.924 178.11C112.39 175.957 110.395 173.107 108.939 169.56C107.545 165.95 106.849 161.453 106.849 156.07V109.9C106.849 108.633 107.482 108 108.749 108H124.139C125.469 108 126.134 108.633 126.134 109.9V156.735C126.134 160.662 126.862 163.543 128.319 165.38C129.839 167.153 132.34 168.04 135.824 168.04C139.307 168.04 141.809 167.153 143.329 165.38C144.849 163.543 145.609 160.662 145.609 156.735V109.9C145.609 108.633 146.242 108 147.509 108H162.899C164.229 108 164.894 108.633 164.894 109.9V156.07Z" fill="#036B3F"/>
<path d="M61.475 180.58C61.475 181.91 60.81 182.575 59.48 182.575H43.9C42.6333 182.575 42 181.91 42 180.58V109.805C42 108.602 42.6333 108 43.9 108H59.48C60.81 108 61.475 108.602 61.475 109.805V134.79L76.96 109.52C77.2767 109.013 77.5933 108.633 77.91 108.38C78.2267 108.127 78.6383 108 79.145 108H98.24C98.9367 108 99.4117 108.222 99.665 108.665C99.9817 109.045 99.9183 109.583 99.475 110.28L61.475 166.52V180.58ZM82.375 182.575C81.1717 182.575 80.4433 182.068 80.19 181.055L69.93 161.58C69.74 161.2 69.6133 160.788 69.55 160.345C69.55 159.838 69.7083 159.363 70.025 158.92L79.43 145.05C80.3167 143.657 81.1717 143.657 81.995 145.05L102.705 180.39C103.338 181.847 102.863 182.575 101.28 182.575H82.375Z" fill="#036B3F"/>
</svg>
