<svg width="184" height="60" viewBox="0 0 184 60" fill="none" xmlns="http://www.w3.org/2000/svg">
<path d="M128.589 57.9166C127.583 57.9166 127.081 57.4137 127.081 56.4079V48.3615C127.081 47.4036 127.583 46.9246 128.589 46.9246H148.49V38.088C148.49 37.1301 148.969 36.6511 149.927 36.6511H160.99C161.948 36.6511 162.427 37.1301 162.427 38.088V46.9246H182.256C183.262 46.9246 183.765 47.4036 183.765 48.3615V56.4079C183.765 57.4137 183.262 57.9166 182.256 57.9166H128.589ZM143.748 36.1482C143.509 36.4356 143.245 36.699 142.958 36.9385C142.718 37.178 142.383 37.2977 141.952 37.2977H129.092C128.517 37.2977 128.086 37.1301 127.799 36.7948C127.512 36.4595 127.56 36.0524 127.943 35.5735L151.866 2.95686C152.106 2.62159 152.345 2.35817 152.585 2.16659C152.872 1.92711 153.231 1.80737 153.662 1.80737H167.241C167.768 1.80737 168.103 2.0229 168.246 2.45396C168.438 2.83712 168.366 3.24423 168.031 3.67528L143.748 36.1482ZM156.967 23.9349C156.488 23.2644 156.536 22.5699 157.111 21.8515L163.146 13.7333C163.768 12.9191 164.415 12.943 165.085 13.8051L183.19 35.5735C183.573 36.0045 183.621 36.4116 183.333 36.7948C183.046 37.1301 182.615 37.2977 182.04 37.2977H168.821C168.39 37.2977 168.031 37.178 167.744 36.9385C167.504 36.699 167.265 36.4356 167.025 36.1482L156.967 23.9349Z" fill="#121212"/>
<path d="M75.7981 13.0149C76.8039 13.0149 77.3068 13.5178 77.3068 14.5236V18.1875C77.3068 22.8813 79.031 25.2281 82.4794 25.2281C86.0237 25.2281 87.7958 22.8813 87.7958 18.1875C87.7958 15.6012 87.0774 13.7333 85.6405 12.5838C84.2037 11.3864 81.9047 10.7877 78.7436 10.7877H63.944C62.9382 10.7877 62.4353 10.3088 62.4353 9.35087V3.02871C62.4353 2.02291 62.9382 1.52001 63.944 1.52001H78.3844C85.5687 1.52001 91.1485 2.83713 95.1238 5.47136C99.147 8.1056 101.159 12.3204 101.159 18.1157C101.159 20.9415 100.704 23.4081 99.7935 25.5155C98.8835 27.575 97.5904 29.2992 95.914 30.6882C94.2856 32.0292 92.3219 33.035 90.0229 33.7056C87.7719 34.3282 85.2574 34.6395 82.4794 34.6395C79.7494 34.6395 77.2349 34.3282 74.9359 33.7056C72.6849 33.035 70.7451 32.0292 69.1167 30.6882C67.4882 29.2992 66.219 27.575 65.309 25.5155C64.399 23.4081 63.944 20.9415 63.944 18.1157V14.5236C63.944 13.5178 64.423 13.0149 65.3809 13.0149H75.7981ZM107.553 39.2375C106.547 39.2375 106.044 38.7585 106.044 37.8006V2.23844C106.044 1.23264 106.547 0.729736 107.553 0.729736H117.826C118.832 0.729736 119.335 1.23264 119.335 2.23844V37.8006C119.335 38.7585 118.832 39.2375 117.826 39.2375H107.553ZM64.3751 49.6547C64.3751 48.6968 64.878 48.2178 65.8838 48.2178H77.666L86.1434 39.0938C86.6703 38.6148 87.3647 38.3754 88.2269 38.3754H101.374C101.949 38.3754 102.308 38.5909 102.452 39.0219C102.595 39.453 102.452 39.8601 102.021 40.2433L85.3531 58.2758C84.8263 58.7548 84.1318 58.9942 83.2697 58.9942H65.8838C64.878 58.9942 64.3751 58.5153 64.3751 57.5574V49.6547ZM94.9082 53.3186C94.1898 52.696 94.1659 52.0015 94.8364 51.2352L101.518 43.9791C102.188 43.3086 102.883 43.3086 103.601 43.9791L108.271 48.2178H118.832C119.838 48.2178 120.341 48.6968 120.341 49.6547V57.5574C120.341 58.5153 119.838 58.9942 118.832 58.9942H105.613H105.325H102.452C102.021 58.9942 101.638 58.9224 101.302 58.7787C101.015 58.6829 100.704 58.5153 100.368 58.2758L94.9082 53.3186Z" fill="#121212"/>
<path d="M1.59792 20.4146C1.59792 19.4567 2.10082 18.9777 3.10662 18.9777H39.8901L40.1057 13.1585H3.75321C2.7953 13.1585 2.31635 12.6795 2.31635 11.7216V3.316C2.31635 2.3581 2.7953 1.87915 3.75321 1.87915H52.8937C53.8995 1.87915 54.4024 2.3581 54.4024 3.316L53.8276 18.6185C53.7318 22.5459 53.4205 25.9225 52.8937 28.7483C52.3668 31.5742 51.6963 34.1845 50.8821 36.5792H55.4082C56.414 36.5792 56.9169 37.0582 56.9169 38.0161V45.9906C56.9169 47.0443 56.414 47.5712 55.4082 47.5712H35.5796V58.5631C35.5796 59.521 35.1006 60 34.1427 60H23.0789C22.121 60 21.6421 59.521 21.6421 58.5631V47.5712H1.74161C0.735809 47.5712 0.23291 47.0443 0.23291 45.9906V38.0161C0.23291 37.0582 0.735809 36.5792 1.74161 36.5792H37.3756C37.7588 35.4776 38.0462 34.3281 38.2377 33.1308C38.4772 31.8855 38.7167 30.6402 38.9562 29.3949H3.10662C2.10082 29.3949 1.59792 28.916 1.59792 27.9581V20.4146Z" fill="#121212"/>
</svg>
