<svg width="58" height="19" viewBox="0 0 58 19" fill="none" xmlns="http://www.w3.org/2000/svg">
<path d="M40.5644 18.0713C40.2465 18.0713 40.0876 17.9124 40.0876 17.5946V15.0519C40.0876 14.7492 40.2465 14.5978 40.5644 14.5978H46.853V11.8054C46.853 11.5027 47.0044 11.3513 47.3071 11.3513H50.8033C51.106 11.3513 51.2573 11.5027 51.2573 11.8054V14.5978H57.5233C57.8411 14.5978 58 14.7492 58 15.0519V17.5946C58 17.9124 57.8411 18.0713 57.5233 18.0713H40.5644ZM45.3546 11.1924C45.279 11.2832 45.1957 11.3665 45.1049 11.4421C45.0292 11.5178 44.9233 11.5557 44.7871 11.5557H40.7233C40.5417 11.5557 40.4055 11.5027 40.3146 11.3967C40.2238 11.2908 40.239 11.1621 40.36 11.0108L47.92 0.703788C47.9957 0.597842 48.0714 0.514599 48.1471 0.454059C48.2379 0.378383 48.3514 0.340546 48.4876 0.340546H52.7784C52.9449 0.340546 53.0508 0.408654 53.0962 0.54487C53.1568 0.66595 53.1341 0.794598 53.0281 0.930814L45.3546 11.1924ZM49.5319 7.33296C49.3806 7.12107 49.3957 6.90161 49.5773 6.67459L51.4844 4.10919C51.6811 3.85189 51.8854 3.85946 52.0973 4.13189L57.8184 11.0108C57.9395 11.147 57.9546 11.2757 57.8638 11.3967C57.773 11.5027 57.6368 11.5557 57.4552 11.5557H53.2779C53.1416 11.5557 53.0281 11.5178 52.9373 11.4421C52.8616 11.3665 52.786 11.2832 52.7103 11.1924L49.5319 7.33296Z" fill="white"/>
<path d="M23.8822 3.88216C24.2 3.88216 24.3589 4.04107 24.3589 4.35891V5.51675C24.3589 6.99999 24.9038 7.74161 25.9935 7.74161C27.1135 7.74161 27.6735 6.99999 27.6735 5.51675C27.6735 4.69945 27.4465 4.10918 26.9924 3.74594C26.5384 3.36756 25.8119 3.17837 24.813 3.17837H20.1362C19.8184 3.17837 19.6595 3.02702 19.6595 2.72432V0.726485C19.6595 0.408649 19.8184 0.24973 20.1362 0.24973H24.6995C26.9697 0.24973 28.733 0.665945 29.9892 1.49838C31.2605 2.33081 31.8962 3.6627 31.8962 5.49404C31.8962 6.38702 31.7524 7.16647 31.4649 7.83242C31.1773 8.48323 30.7687 9.02809 30.2389 9.46701C29.7243 9.89079 29.1038 10.2086 28.3773 10.4205C27.666 10.6173 26.8714 10.7157 25.9935 10.7157C25.1308 10.7157 24.3362 10.6173 23.6097 10.4205C22.8984 10.2086 22.2854 9.89079 21.7708 9.46701C21.2562 9.02809 20.8552 8.48323 20.5676 7.83242C20.28 7.16647 20.1362 6.38702 20.1362 5.49404V4.35891C20.1362 4.04107 20.2876 3.88216 20.5903 3.88216H23.8822ZM33.9168 12.1686C33.5989 12.1686 33.44 12.0173 33.44 11.7146V0.476756C33.44 0.158919 33.5989 0 33.9168 0H37.1632C37.4811 0 37.64 0.158919 37.64 0.476756V11.7146C37.64 12.0173 37.4811 12.1686 37.1632 12.1686H33.9168ZM20.2725 15.4605C20.2725 15.1578 20.4314 15.0065 20.7492 15.0065H24.4724L27.1514 12.1232C27.3179 11.9719 27.5373 11.8962 27.8097 11.8962H31.9643C32.1459 11.8962 32.2595 11.9643 32.3049 12.1005C32.3503 12.2367 32.3049 12.3654 32.1687 12.4865L26.9016 18.1848C26.7351 18.3362 26.5157 18.4119 26.2433 18.4119H20.7492C20.4314 18.4119 20.2725 18.2605 20.2725 17.9578V15.4605ZM29.9211 16.6183C29.6941 16.4216 29.6865 16.2021 29.8984 15.96L32.0097 13.667C32.2216 13.4551 32.4411 13.4551 32.6681 13.667L34.1438 15.0065H37.4811C37.7989 15.0065 37.9578 15.1578 37.9578 15.4605V17.9578C37.9578 18.2605 37.7989 18.4119 37.4811 18.4119H33.3038H33.213H32.3049C32.1687 18.4119 32.0476 18.3892 31.9416 18.3438C31.8508 18.3135 31.7524 18.2605 31.6465 18.1848L29.9211 16.6183Z" fill="white"/>
<path d="M0.434585 6.22053C0.434585 5.91783 0.593504 5.76648 0.911341 5.76648H12.5351L12.6032 3.92756H1.11567C0.812963 3.92756 0.661612 3.77621 0.661612 3.47351V0.8173C0.661612 0.514598 0.812963 0.363247 1.11567 0.363247H16.6443C16.9621 0.363247 17.121 0.514598 17.121 0.8173L16.9394 5.65297C16.9091 6.89404 16.8108 7.96107 16.6443 8.85404C16.4778 9.74701 16.2659 10.5719 16.0086 11.3286H17.4389C17.7567 11.3286 17.9156 11.48 17.9156 11.7827V14.3027C17.9156 14.6357 17.7567 14.8021 17.4389 14.8021H11.1729V18.2756C11.1729 18.5783 11.0216 18.7297 10.7189 18.7297H7.22268C6.91998 18.7297 6.76863 18.5783 6.76863 18.2756V14.8021H0.479991C0.162153 14.8021 0.00323486 14.6357 0.00323486 14.3027V11.7827C0.00323486 11.48 0.162153 11.3286 0.479991 11.3286H11.7405C11.8616 10.9805 11.9524 10.6173 12.0129 10.2389C12.0886 9.84539 12.1643 9.45188 12.24 9.05836H0.911341C0.593504 9.05836 0.434585 8.90701 0.434585 8.60431V6.22053Z" fill="white"/>
</svg>
