<svg width="58" height="19" viewBox="0 0 58 19" fill="none" xmlns="http://www.w3.org/2000/svg">
<path d="M40.5644 18.0714C40.2466 18.0714 40.0876 17.9124 40.0876 17.5946V15.0519C40.0876 14.7492 40.2466 14.5978 40.5644 14.5978H46.853V11.8054C46.853 11.5027 47.0044 11.3514 47.3071 11.3514H50.8033C51.106 11.3514 51.2574 11.5027 51.2574 11.8054V14.5978H57.5233C57.8411 14.5978 58 14.7492 58 15.0519V17.5946C58 17.9124 57.8411 18.0714 57.5233 18.0714H40.5644ZM45.3547 11.1924C45.279 11.2833 45.1957 11.3665 45.1049 11.4422C45.0293 11.5179 44.9233 11.5557 44.7871 11.5557H40.7233C40.5417 11.5557 40.4055 11.5027 40.3147 11.3968C40.2239 11.2908 40.239 11.1622 40.3601 11.0108L47.9201 0.703818C47.9957 0.597873 48.0714 0.51463 48.1471 0.454089C48.2379 0.378414 48.3514 0.340576 48.4876 0.340576H52.7784C52.9449 0.340576 53.0509 0.408684 53.0963 0.5449C53.1568 0.66598 53.1341 0.794628 53.0282 0.930844L45.3547 11.1924ZM49.532 7.333C49.3806 7.1211 49.3957 6.90164 49.5774 6.67462L51.4844 4.10922C51.6811 3.85192 51.8855 3.85949 52.0974 4.13192L57.8184 11.0108C57.9395 11.147 57.9546 11.2757 57.8638 11.3968C57.773 11.5027 57.6368 11.5557 57.4552 11.5557H53.2779C53.1417 11.5557 53.0282 11.5179 52.9374 11.4422C52.8617 11.3665 52.786 11.2833 52.7103 11.1924L49.532 7.333Z" fill="#DAE000"/>
<path d="M23.8821 3.88216C24.2 3.88216 24.3589 4.04107 24.3589 4.35891V5.51675C24.3589 6.99999 24.9037 7.74161 25.9935 7.74161C27.1135 7.74161 27.6735 6.99999 27.6735 5.51675C27.6735 4.69945 27.4464 4.10918 26.9924 3.74594C26.5383 3.36756 25.8118 3.17837 24.8129 3.17837H20.1362C19.8183 3.17837 19.6594 3.02702 19.6594 2.72432V0.726485C19.6594 0.408649 19.8183 0.24973 20.1362 0.24973H24.6994C26.9697 0.24973 28.7329 0.665946 29.9891 1.49838C31.2605 2.33081 31.8962 3.6627 31.8962 5.49404C31.8962 6.38702 31.7524 7.16647 31.4648 7.83242C31.1772 8.48323 30.7686 9.02809 30.2389 9.46701C29.7243 9.89079 29.1037 10.2086 28.3772 10.4205C27.6659 10.6173 26.8713 10.7157 25.9935 10.7157C25.1308 10.7157 24.3362 10.6173 23.6097 10.4205C22.8983 10.2086 22.2854 9.89079 21.7708 9.46701C21.2562 9.02809 20.8551 8.48323 20.5675 7.83242C20.28 7.16647 20.1362 6.38702 20.1362 5.49404V4.35891C20.1362 4.04107 20.2875 3.88216 20.5902 3.88216H23.8821ZM33.9167 12.1686C33.5989 12.1686 33.4399 12.0173 33.4399 11.7146V0.476756C33.4399 0.158919 33.5989 0 33.9167 0H37.1632C37.481 0 37.6399 0.158919 37.6399 0.476756V11.7146C37.6399 12.0173 37.481 12.1686 37.1632 12.1686H33.9167ZM20.2724 15.4605C20.2724 15.1578 20.4313 15.0065 20.7492 15.0065H24.4724L27.1513 12.1232C27.3178 11.9719 27.5372 11.8962 27.8097 11.8962H31.9643C32.1459 11.8962 32.2594 11.9643 32.3048 12.1005C32.3502 12.2367 32.3048 12.3654 32.1686 12.4865L26.9016 18.1848C26.7351 18.3362 26.5156 18.4119 26.2432 18.4119H20.7492C20.4313 18.4119 20.2724 18.2605 20.2724 17.9578V15.4605ZM29.921 16.6183C29.694 16.4216 29.6864 16.2021 29.8983 15.96L32.0097 13.667C32.2216 13.4551 32.441 13.4551 32.668 13.667L34.1437 15.0065H37.481C37.7989 15.0065 37.9578 15.1578 37.9578 15.4605V17.9578C37.9578 18.2605 37.7989 18.4119 37.481 18.4119H33.3037H33.2129H32.3048C32.1686 18.4119 32.0475 18.3892 31.9416 18.3438C31.8508 18.3135 31.7524 18.2605 31.6464 18.1848L29.921 16.6183Z" fill="#DAE000"/>
<path d="M0.434524 6.22057C0.434524 5.91787 0.593443 5.76651 0.91128 5.76651H12.535L12.6032 3.9276H1.1156C0.812902 3.9276 0.661551 3.77625 0.661551 3.47355V0.817334C0.661551 0.514632 0.812902 0.363281 1.1156 0.363281H16.6442C16.9621 0.363281 17.121 0.514632 17.121 0.817334L16.9394 5.653C16.9091 6.89408 16.8107 7.9611 16.6442 8.85408C16.4777 9.74705 16.2658 10.5719 16.0085 11.3287H17.4388C17.7567 11.3287 17.9156 11.48 17.9156 11.7827V14.3027C17.9156 14.6357 17.7567 14.8022 17.4388 14.8022H11.1729V18.2757C11.1729 18.5784 11.0215 18.7297 10.7188 18.7297H7.22262C6.91992 18.7297 6.76857 18.5784 6.76857 18.2757V14.8022H0.47993C0.162092 14.8022 0.00317383 14.6357 0.00317383 14.3027V11.7827C0.00317383 11.48 0.162092 11.3287 0.47993 11.3287H11.7404C11.8615 10.9806 11.9523 10.6173 12.0129 10.2389C12.0886 9.84542 12.1642 9.45191 12.2399 9.0584H0.91128C0.593443 9.0584 0.434524 8.90705 0.434524 8.60435V6.22057Z" fill="#DAE000"/>
</svg>
