<svg width="42" height="42" viewBox="0 0 42 42" fill="none" xmlns="http://www.w3.org/2000/svg">
<path d="M20.8741 36.5298C20.6452 36.5312 20.4182 36.4873 20.2063 36.4007C19.9944 36.3141 19.8016 36.1866 19.6391 36.0254L6.12307 22.492C4.42767 20.7789 3.47668 18.466 3.47668 16.0558C3.47668 13.6456 4.42767 11.3327 6.12307 9.61961C7.83172 7.91578 10.1463 6.95898 12.5593 6.95898C14.9722 6.95898 17.2868 7.91578 18.9954 9.61961L20.8741 11.4983L22.7528 9.61961C24.4614 7.91578 26.776 6.95898 29.189 6.95898C31.602 6.95898 33.9165 7.91578 35.6252 9.61961C37.3205 11.3327 38.2715 13.6456 38.2715 16.0558C38.2715 18.466 37.3205 20.7789 35.6252 22.492L22.1092 36.0254C21.9466 36.1866 21.7539 36.3141 21.5419 36.4007C21.33 36.4873 21.103 36.5312 20.8741 36.5298Z" fill="#FF0000"/>
</svg>
