<svg width="25" height="24" viewBox="0 0 25 24" fill="none" xmlns="http://www.w3.org/2000/svg">
<path fill-rule="evenodd" clip-rule="evenodd" d="M18.8333 10C18.8333 14.4183 15.2516 18 10.8333 18C6.41503 18 2.83331 14.4183 2.83331 10C2.83331 5.58172 6.41503 2 10.8333 2C15.2516 2 18.8333 5.58172 18.8333 10ZM17.162 17.7429C15.4382 19.1536 13.2346 20 10.8333 20C5.31047 20 0.833313 15.5228 0.833313 10C0.833313 4.47715 5.31047 0 10.8333 0C16.3562 0 20.8333 4.47715 20.8333 10C20.8333 12.4013 19.9869 14.6049 18.5763 16.3287L24.5404 22.2929C24.9309 22.6834 24.9309 23.3166 24.5404 23.7071C24.1499 24.0976 23.5167 24.0976 23.1262 23.7071L17.162 17.7429Z" fill="#121212"/>
</svg>
