<svg width="22" height="22" viewBox="0 0 22 22" fill="none" xmlns="http://www.w3.org/2000/svg">
<path fill-rule="evenodd" clip-rule="evenodd" d="M21.7071 0.29292C21.9749 0.560753 22.0684 0.95692 21.9487 1.31625L15.282 21.3162C15.1488 21.7156 14.7798 21.9889 14.3589 21.9997C13.938 22.0105 13.5555 21.7565 13.402 21.3644L9.81147 12.1885L0.635598 8.59793C0.243528 8.44451 -0.0104549 8.06195 0.000330596 7.64107C0.0111161 7.22019 0.28436 6.85114 0.683774 6.718L20.6837 0.0513438C21.0431 -0.0684344 21.4392 0.0250882 21.7071 0.29292ZM11.7529 11.6614L14.258 18.0635L18.7117 4.70249L11.7529 11.6614ZM17.2975 3.28827L3.93652 7.74194L10.3386 10.2471L17.2975 3.28827Z" fill="black"/>
</svg>
