<svg width="30" height="30" viewBox="0 0 30 30" fill="none" xmlns="http://www.w3.org/2000/svg">
<path fill-rule="evenodd" clip-rule="evenodd" d="M8.47909 8.43738H6.06354C4.68631 8.43738 3.49928 9.40662 3.22389 10.756L0.0595508 26.2613C-0.307081 28.0578 1.06568 29.739 2.8992 29.739H27.1008C28.9343 29.739 30.3071 28.0578 29.9405 26.2613L26.7761 10.756C26.5007 9.40662 25.3137 8.43738 23.9365 8.43738H21.376V11.1182C21.376 14.6796 18.4889 17.5667 14.9275 17.5667C11.3662 17.5667 8.47909 14.6796 8.47909 11.1182V8.43738ZM12.8264 8.43738H15H17.0287V11.1182C17.0287 12.2786 16.088 13.2194 14.9275 13.2194C13.7671 13.2194 12.8264 12.2786 12.8264 11.1182V8.43738Z" fill="#121212"/>
<path fill-rule="evenodd" clip-rule="evenodd" d="M9.34668 5.85231C9.34668 2.75824 11.8549 0.25 14.949 0.25C18.0431 0.25 20.5513 2.75824 20.5513 5.85231V11.1673C20.5513 14.2614 18.0431 16.7696 14.949 16.7696C11.8549 16.7696 9.34668 14.2614 9.34668 11.1673V5.85231ZM14.949 2.97933C13.3623 2.97933 12.076 4.26561 12.076 5.85231V11.1673C12.076 12.754 13.3623 14.0403 14.949 14.0403C16.5357 14.0403 17.822 12.754 17.822 11.1673V5.85231C17.822 4.26561 16.5357 2.97933 14.949 2.97933Z" fill="#121212"/>
<path fill-rule="evenodd" clip-rule="evenodd" d="M26.7444 1C26.7444 0.447715 26.2966 0 25.7444 0C25.1921 0 24.7444 0.447715 24.7444 1V3.24435H22.5C21.9477 3.24435 21.5 3.69207 21.5 4.24435C21.5 4.79664 21.9477 5.24435 22.5 5.24435H24.7444V7.48876C24.7444 8.04105 25.1921 8.48876 25.7444 8.48876C26.2966 8.48876 26.7444 8.04105 26.7444 7.48876V5.24435H28.9888C29.541 5.24435 29.9888 4.79664 29.9888 4.24435C29.9888 3.69207 29.541 3.24435 28.9888 3.24435H26.7444V1Z" fill="#121212"/>
</svg>
