<svg width="20" height="14" viewBox="0 0 20 14" fill="none" xmlns="http://www.w3.org/2000/svg">
<path fill-rule="evenodd" clip-rule="evenodd" d="M19.8651 2.03307C19.8651 1.40002 19.3876 0.886841 18.7985 0.886841H17.7318C17.1427 0.886841 16.6651 1.40002 16.6651 2.03307V11.967C16.6651 12.6001 17.1427 13.1133 17.7318 13.1133H18.7985C19.3876 13.1133 19.8651 12.6001 19.8651 11.967V2.03307ZM12.431 3.33212H13.4977C14.0868 3.33212 14.5644 3.85762 14.5644 4.50586V11.9395C14.5644 12.5878 14.0868 13.1133 13.4977 13.1133H12.431C11.8419 13.1133 11.3644 12.5878 11.3644 11.9395V4.50586C11.3644 3.85762 11.8419 3.33212 12.431 3.33212ZM8.09926 5.98117H7.03259C6.44349 5.98117 5.96593 6.51336 5.96593 7.16985V11.9246C5.96593 12.5811 6.44349 13.1132 7.03259 13.1132H8.09926C8.68836 13.1132 9.16593 12.5811 9.16593 11.9246V7.16985C9.16593 6.51336 8.68836 5.98117 8.09926 5.98117ZM2.79848 8.42646H1.73181C1.14271 8.42646 0.665146 8.95105 0.665146 9.59816V11.9416C0.665146 12.5887 1.14271 13.1133 1.73181 13.1133H2.79848C3.38758 13.1133 3.86515 12.5887 3.86515 11.9416V9.59816C3.86515 8.95105 3.38758 8.42646 2.79848 8.42646Z" fill="black"/>
</svg>
