<svg width="18" height="14" viewBox="0 0 18 14" fill="none" xmlns="http://www.w3.org/2000/svg">
<path fill-rule="evenodd" clip-rule="evenodd" d="M9.43645 3.3021C11.9236 3.3022 14.3156 4.22428 16.1181 5.87776C16.2538 6.00542 16.4708 6.00381 16.6044 5.87415L17.9019 4.61069C17.9696 4.54493 18.0074 4.45585 18.0068 4.36317C18.0062 4.27049 17.9674 4.18184 17.8989 4.11685C13.1679 -0.257863 5.70421 -0.257863 0.973199 4.11685C0.904667 4.1818 0.865783 4.27041 0.865151 4.3631C0.864519 4.45578 0.902191 4.54488 0.969832 4.61069L2.2677 5.87415C2.40129 6.004 2.61842 6.00562 2.75407 5.87776C4.55681 4.22418 6.94909 3.30209 9.43645 3.3021ZM9.43309 7.52237C10.7904 7.52229 12.0993 8.03403 13.1054 8.95816C13.2415 9.08931 13.4559 9.08647 13.5885 8.95175L14.8758 7.63244C14.9436 7.56324 14.9812 7.46936 14.9802 7.37181C14.9792 7.27426 14.9398 7.18118 14.8706 7.11339C11.8068 4.22254 7.06202 4.22254 3.99819 7.11339C3.92898 7.18118 3.8895 7.27431 3.88859 7.37189C3.88768 7.46947 3.92543 7.56334 3.99336 7.63244L5.28027 8.95175C5.41292 9.08647 5.62729 9.08931 5.76337 8.95816C6.76882 8.03464 8.07667 7.52294 9.43309 7.52237ZM11.9575 10.3159C11.9594 10.4213 11.9224 10.5228 11.8551 10.5967L9.67841 13.0514C9.61461 13.1235 9.52761 13.1641 9.43684 13.1641C9.34608 13.1641 9.25908 13.1235 9.19528 13.0514L7.01825 10.5967C6.951 10.5228 6.914 10.4212 6.91599 10.3158C6.91799 10.2105 6.9588 10.1107 7.02878 10.0401C8.41888 8.72621 10.4548 8.72621 11.8449 10.0401C11.9148 10.1108 11.9556 10.2106 11.9575 10.3159Z" fill="black"/>
</svg>
