<svg width="42" height="42" viewBox="0 0 42 42" fill="none" xmlns="http://www.w3.org/2000/svg">
<path d="M20.874 36.5298C20.6451 36.5312 20.4181 36.4873 20.2062 36.4007C19.9942 36.3141 19.8015 36.1866 19.6389 36.0254L6.12294 22.492C4.42755 20.7789 3.47656 18.466 3.47656 16.0558C3.47656 13.6456 4.42755 11.3327 6.12294 9.61961C7.8316 7.91578 10.1461 6.95898 12.5591 6.95898C14.9721 6.95898 17.2867 7.91578 18.9953 9.61961L20.874 11.4983L22.7527 9.61961C24.4613 7.91578 26.7759 6.95898 29.1888 6.95898C31.6018 6.95898 33.9164 7.91578 35.625 9.61961C37.3204 11.3327 38.2714 13.6456 38.2714 16.0558C38.2714 18.466 37.3204 20.7789 35.625 22.492L22.109 36.0254C21.9465 36.1866 21.7537 36.3141 21.5418 36.4007C21.3299 36.4873 21.1029 36.5312 20.874 36.5298Z" fill="black"/>
</svg>
